<svg xmlns="http://www.w3.org/2000/svg" width="16" height="17" viewBox="0 0 16 17" fill="none">
  <path d="M11.3332 14.5V13.1667C11.3332 12.4594 11.0522 11.7811 10.5521 11.281C10.052 10.781 9.37375 10.5 8.6665 10.5H3.33317C2.62593 10.5 1.94765 10.781 1.44755 11.281C0.947456 11.7811 0.666504 12.4594 0.666504 13.1667V14.5M15.3332 14.5V13.1667C15.3327 12.5758 15.1361 12.0018 14.7741 11.5349C14.4121 11.0679 13.9053 10.7344 13.3332 10.5867M10.6665 2.58667C11.2401 2.73353 11.7485 3.06713 12.1116 3.53487C12.4747 4.00261 12.6717 4.57789 12.6717 5.17C12.6717 5.76211 12.4747 6.33739 12.1116 6.80513C11.7485 7.27287 11.2401 7.60647 10.6665 7.75333M8.6665 5.16667C8.6665 6.63943 7.4726 7.83333 5.99984 7.83333C4.52708 7.83333 3.33317 6.63943 3.33317 5.16667C3.33317 3.69391 4.52708 2.5 5.99984 2.5C7.4726 2.5 8.6665 3.69391 8.6665 5.16667Z" stroke="#566E73" stroke-linecap="round" stroke-linejoin="round"/>
</svg>

